<?xml version="1.0" encoding="UTF-8"?>
<!DOCTYPE svg PUBLIC "-//W3C//DTD SVG 1.1//EN" "http://www.w3.org/Graphics/SVG/1.1/DTD/svg11.dtd">
<svg xmlns="http://www.w3.org/2000/svg" width="32" height="32" viewBox="0 0 507.98 507.98">
 <path fill="#373435" d="M287.43 169.06l-227.16 0 250.94 299.06 80.74 0 -199.06 -237.23 94.54 0c8.5,0 16.23,-3.48 21.83,-9.09 5.61,-5.6 9.09,-13.33 9.09,-21.83 0,-8.49 -3.48,-16.22 -9.09,-21.82 -5.6,-5.61 -13.33,-9.09 -21.83,-9.09zm0.15 -129.21l-205.69 0 52.12 62.12 153.57 0c13.18,0 25.8,2.66 37.34,7.47 12,5 22.8,12.3 31.85,21.34 9.04,9.05 16.34,19.85 21.34,31.85 4.81,11.54 7.47,24.16 7.47,37.34 0,13.18 -2.66,25.8 -7.47,37.35 -5,11.99 -12.3,22.8 -21.34,31.84l-0.03 0c-5.86,5.87 -12.46,11 -19.61,15.23 -4.37,2.58 -8.95,4.84 -13.71,6.73l41.23 49.13c5.89,-3.25 11.55,-6.86 16.95,-10.8 6.68,-4.87 13.07,-10.35 19.09,-16.37 14.79,-14.8 26.73,-32.45 34.86,-52.02 7.82,-18.82 12.15,-39.46 12.15,-61.09 0,-21.62 -4.33,-42.26 -12.15,-61.08 -8.13,-19.57 -20.07,-37.23 -34.86,-52.03 -14.8,-14.79 -32.46,-26.73 -52.03,-34.86 -18.82,-7.82 -39.46,-12.15 -61.08,-12.15z"/>
</svg>