<?xml version="1.0" encoding="UTF-8"?>
<!DOCTYPE svg PUBLIC "-//W3C//DTD SVG 1.1//EN" "http://www.w3.org/Graphics/SVG/1.1/DTD/svg11.dtd">
<!-- Creator: CorelDRAW 2019 (64-Bit) -->
<svg xmlns="http://www.w3.org/2000/svg" xml:space="preserve" width="5.0798mm" height="5.0798mm" version="1.1" style="shape-rendering:geometricPrecision; text-rendering:geometricPrecision; image-rendering:optimizeQuality; fill-rule:evenodd; clip-rule:evenodd"
viewBox="0 0 507.98 507.98"
 xmlns:xlink="http://www.w3.org/1999/xlink"
 xmlns:xodm="http://www.corel.com/coreldraw/odm/2003">
 <defs>
  <style type="text/css">
   <![CDATA[
    .fil0 {fill:#373435;fill-rule:nonzero}
   ]]>
  </style>
 </defs>
 <g id="Слой_x0020_1">
  <metadata id="CorelCorpID_0Corel-Layer"/>
  <path class="fil0" d="M289.07 164.9l-238.28 0 263.22 313.7 84.69 0 -208.81 -248.85 99.18 0c8.91,0 17.02,-3.65 22.9,-9.52 5.88,-5.88 9.53,-13.99 9.53,-22.9 0,-8.91 -3.65,-17.02 -9.53,-22.9 -5.88,-5.88 -13.99,-9.53 -22.9,-9.53zm0.15 -135.53l-215.76 0 54.67 65.16 161.09 0c13.83,0 27.07,2.79 39.18,7.83 12.58,5.24 23.91,12.91 33.4,22.39 9.48,9.49 17.14,20.82 22.39,33.4 5.04,12.12 7.83,25.35 7.83,39.18 0,13.83 -2.79,27.06 -7.83,39.17 -5.24,12.58 -12.91,23.92 -22.39,33.41l-0.03 0c-6.15,6.15 -13.07,11.53 -20.57,15.97 -4.59,2.71 -9.39,5.07 -14.38,7.06l43.25 51.53c6.17,-3.41 12.11,-7.2 17.77,-11.33 7.02,-5.11 13.72,-10.86 20.03,-17.17 15.52,-15.52 28.04,-34.04 36.57,-54.56 8.2,-19.75 12.74,-41.4 12.74,-64.08 0,-22.69 -4.54,-44.34 -12.74,-64.08 -8.53,-20.53 -21.05,-39.05 -36.57,-54.57 -15.52,-15.52 -34.04,-28.04 -54.57,-36.57 -19.74,-8.2 -41.39,-12.74 -64.08,-12.74z"/>
 </g>
</svg>
