<svg xmlns="http://www.w3.org/2000/svg" viewBox="0 0 960 640"><rect width="960" height="640" fill="#f3c7b9"/><rect x="42" y="42" width="876" height="556" rx="5" fill="#f8f7f2"/><path d="M42 101H918" stroke="#ddded5"/><text x="75" y="79" font-family="Arial,sans-serif" font-size="20" font-weight="700" fill="#20251e">VITA NOVA</text><path d="M847 65H882M847 73H882M847 81H882" stroke="#20251e" stroke-width="2"/><text x="75" y="224" font-family="Arial,sans-serif" font-weight="700" font-size="57" fill="#20251e">VITA</text><text x="75" y="283" font-family="Arial,sans-serif" font-weight="700" font-size="57" fill="#20251e">NOVA.</text><g fill="#92988b"><rect x="77" y="328" width="245" height="7"/><rect x="77" y="348" width="207" height="7"/><rect x="77" y="368" width="167" height="7"/></g><rect x="76" y="424" width="167" height="47" fill="#20251e"/><path d="M196 447H221m-8-8 9 8-9 8" fill="none" stroke="#f8f7f2" stroke-width="2"/><g fill="none" stroke-width="5"><path d="M573 130C857 240 551 405 807 509" stroke="#bb4d35"/><path d="M801 130C517 240 823 405 567 509" stroke="#719079"/></g><path d="M717 152H663" stroke="#e79f85" stroke-width="3"/><path d="M688 171H692" stroke="#e79f85" stroke-width="3"/><path d="M657 190H723" stroke="#e79f85" stroke-width="3"/><path d="M627 209H753" stroke="#e79f85" stroke-width="3"/><path d="M602 228H778" stroke="#e79f85" stroke-width="3"/><path d="M584 247H796" stroke="#e79f85" stroke-width="3"/><path d="M575 266H805" stroke="#e79f85" stroke-width="3"/><path d="M576 285H804" stroke="#e79f85" stroke-width="3"/><path d="M587 304H793" stroke="#e79f85" stroke-width="3"/><path d="M607 323H773" stroke="#e79f85" stroke-width="3"/><path d="M634 342H746" stroke="#e79f85" stroke-width="3"/><path d="M664 361H716" stroke="#e79f85" stroke-width="3"/><path d="M695 380H685" stroke="#e79f85" stroke-width="3"/><path d="M723 399H657" stroke="#e79f85" stroke-width="3"/><path d="M745 418H635" stroke="#e79f85" stroke-width="3"/><path d="M760 437H620" stroke="#e79f85" stroke-width="3"/><path d="M764 456H616" stroke="#e79f85" stroke-width="3"/><path d="M759 475H621" stroke="#e79f85" stroke-width="3"/><path d="M744 494H636" stroke="#e79f85" stroke-width="3"/><text x="76" y="561" font-family="monospace" font-size="12" fill="#626c5d">SR / 05</text></svg>