<?xml version="1.0" encoding="UTF-8"?>
<!DOCTYPE svg PUBLIC "-//W3C//DTD SVG 1.1//EN" "http://www.w3.org/Graphics/SVG/1.1/DTD/svg11.dtd">
<!-- Creator: CorelDRAW 2019 (64-Bit) -->
<svg xmlns="http://www.w3.org/2000/svg" xml:space="preserve" width="15.2398mm" height="8.0432mm" version="1.1" style="shape-rendering:geometricPrecision; text-rendering:geometricPrecision; image-rendering:optimizeQuality; fill-rule:evenodd; clip-rule:evenodd"
viewBox="0 0 1523.98 804.32"
 xmlns:xlink="http://www.w3.org/1999/xlink"
 xmlns:xodm="http://www.corel.com/coreldraw/odm/2003">
 <defs>
  <style type="text/css">
   <![CDATA[
    .fil0 {fill:#373435;fill-rule:nonzero}
   ]]>
  </style>
 </defs>
 <g id="Слой_x0020_1">
  <metadata id="CorelCorpID_0Corel-Layer"/>
  <path class="fil0" d="M747.92 225.1l-227.16 0 250.94 299.06 80.74 0 -199.06 -237.23 94.54 0c8.5,0 16.23,-3.48 21.83,-9.09 5.61,-5.6 9.09,-13.33 9.09,-21.83 0,-8.49 -3.48,-16.22 -9.09,-21.82 -5.6,-5.61 -13.33,-9.09 -21.83,-9.09zm-566.75 490.13l-16.82 -23.96 -1.96 0.11 -2.27 0.07 -18.2 0 0 24.51 -14.93 0 0 -83.99 33.13 0c5.37,0 10.2,0.65 14.48,1.95 4.33,1.31 8.08,3.29 11.25,5.93 3.19,2.67 5.6,5.84 7.2,9.52 1.6,3.66 2.39,7.79 2.39,12.39 0,3.26 -0.4,6.3 -1.22,9.11 -0.82,2.83 -2.05,5.42 -3.69,7.76 -1.64,2.34 -3.64,4.36 -5.98,6.07 -1.77,1.28 -3.73,2.39 -5.89,3.3l19.75 27.96 -16.72 0 -0.52 -0.73zm-21.39 -36.99c6.89,0 12.09,-1.44 15.61,-4.32 1.7,-1.4 2.98,-3.09 3.82,-5.08 0.87,-2.03 1.3,-4.39 1.3,-7.08 0,-2.68 -0.43,-5.03 -1.29,-7.05 -0.86,-1.98 -2.13,-3.66 -3.83,-5.03 -1.73,-1.4 -3.87,-2.46 -6.42,-3.18 -2.63,-0.73 -5.69,-1.1 -9.19,-1.1l-17.86 0 0 32.84 17.86 0zm195.71 17.58l-40.59 0 -8.86 20.14 -15.62 0c12.67,-28 25.34,-56 38.04,-83.99l13.59 0 38.16 83.99 -15.85 0 -8.87 -20.14zm-5.53 -12.63l-14.76 -33.53 -14.76 33.53 29.52 0zm158.61 -2.22l-12.94 13.14 0 21.85 -14.93 0 0 -83.99 14.93 0 0 42.51 41.32 -42.51 17.81 0 -36.11 38.04 37.95 45.95 -17.87 0 -30.16 -34.99zm149.49 -49l13.22 0 0 83.99 -14.93 0 0 -83.99 1.71 0zm152.05 84.91c-3.09,0 -6.16,-0.24 -9.2,-0.73 -3.02,-0.48 -5.99,-1.21 -8.89,-2.18 -2.92,-0.97 -5.54,-2.1 -7.84,-3.36 -2.33,-1.28 -4.36,-2.72 -6.08,-4.32l-0.91 -0.85 5.77 -12.18 1.71 1.54c1.45,1.3 3.1,2.48 4.95,3.54 1.89,1.07 3.98,2.03 6.28,2.86 2.28,0.82 4.62,1.44 7.01,1.86 2.36,0.41 4.76,0.62 7.2,0.62 3.23,0 6.02,-0.27 8.38,-0.8 2.27,-0.52 4.15,-1.29 5.63,-2.3 1.42,-0.97 2.48,-2.1 3.17,-3.36 0.68,-1.24 1.03,-2.67 1.03,-4.26 0,-2.29 -0.73,-4.12 -2.17,-5.5 -0.8,-0.77 -1.71,-1.45 -2.72,-2.05 -1.02,-0.61 -2.14,-1.13 -3.35,-1.55 -1.27,-0.44 -2.83,-0.92 -4.68,-1.43 -1.78,-0.49 -3.91,-1.03 -6.37,-1.62 -6.16,-1.49 -11.13,-2.97 -14.9,-4.45 -1.99,-0.78 -3.84,-1.77 -5.54,-2.97 -1.71,-1.2 -3.27,-2.61 -4.68,-4.23 -1.48,-1.69 -2.59,-3.67 -3.32,-5.93 -0.72,-2.23 -1.08,-4.71 -1.08,-7.45 0,-2.3 0.31,-4.5 0.92,-6.6 0.62,-2.11 1.54,-4.1 2.76,-5.96 1.23,-1.87 2.78,-3.56 4.63,-5.06 1.84,-1.47 3.97,-2.76 6.4,-3.85 4.83,-2.17 10.78,-3.26 17.85,-3.26 2.43,0 4.86,0.16 7.3,0.48 2.42,0.32 4.82,0.79 7.18,1.42 2.38,0.63 4.61,1.42 6.67,2.34 2.07,0.92 3.98,2 5.72,3.21l1.12 0.78 -5.09 12.35 -1.72 -1.09c-1.59,-1.02 -3.27,-1.92 -5.02,-2.71 -1.74,-0.79 -3.53,-1.45 -5.36,-1.98 -1.82,-0.53 -3.65,-0.93 -5.46,-1.2 -1.79,-0.26 -3.58,-0.4 -5.34,-0.4 -3.14,0 -5.86,0.28 -8.16,0.84 -2.22,0.54 -4.07,1.34 -5.51,2.4 -1.42,1.03 -2.47,2.2 -3.16,3.5 -0.69,1.28 -1.03,2.73 -1.03,4.33 0,1.17 0.19,2.21 0.56,3.11 0.36,0.89 0.92,1.68 1.66,2.38 0.84,0.78 1.77,1.48 2.79,2.08 1.05,0.61 2.2,1.14 3.45,1.58 1.36,0.48 2.93,0.96 4.71,1.45 1.8,0.49 3.87,1.01 6.22,1.55 3.15,0.76 5.92,1.5 8.31,2.21 2.49,0.75 4.68,1.49 6.56,2.24 1.96,0.77 3.79,1.76 5.49,2.95 1.68,1.19 3.23,2.58 4.65,4.18 1.48,1.68 2.59,3.63 3.32,5.86 0.73,2.19 1.09,4.65 1.09,7.36 0,2.27 -0.32,4.46 -0.94,6.54 -0.62,2.09 -1.56,4.08 -2.8,5.97 -1.26,1.89 -2.83,3.59 -4.72,5.08 -1.86,1.48 -4.03,2.75 -6.5,3.83 -2.47,1.07 -5.21,1.88 -8.21,2.4 -2.98,0.53 -6.23,0.79 -9.74,0.79zm211.89 -83.2l0 82.28 -14.93 0 0 -35.91 -42.85 0 0 35.91 -14.93 0 0 -83.99 14.93 0 0 34.65 42.85 0 0 -34.65 14.93 0 0 1.71zm151.73 83.2c-8.42,0 -16.02,-1.85 -22.8,-5.56 -3.4,-1.86 -6.44,-4.08 -9.1,-6.64 -2.68,-2.58 -4.99,-5.5 -6.93,-8.78 -1.93,-3.28 -3.39,-6.76 -4.36,-10.42 -0.97,-3.66 -1.46,-7.5 -1.46,-11.51 0,-4.01 0.49,-7.86 1.46,-11.52 0.97,-3.66 2.43,-7.14 4.36,-10.42 1.94,-3.27 4.25,-6.2 6.93,-8.77 2.66,-2.57 5.7,-4.78 9.1,-6.64 3.38,-1.86 6.99,-3.25 10.8,-4.18 3.81,-0.92 7.81,-1.39 12,-1.39 8.34,0 15.9,1.86 22.68,5.57 3.4,1.86 6.43,4.07 9.09,6.62 2.66,2.56 4.95,5.48 6.87,8.75 1.93,3.26 3.37,6.73 4.33,10.4 0.96,3.67 1.44,7.53 1.44,11.58 0,4.04 -0.48,7.9 -1.44,11.58 -0.96,3.67 -2.4,7.14 -4.33,10.4 -1.92,3.27 -4.21,6.18 -6.87,8.74 -2.66,2.56 -5.69,4.77 -9.09,6.63 -6.78,3.71 -14.34,5.56 -22.68,5.56zm0 -13.66c2.82,0 5.48,-0.32 8,-0.95 2.5,-0.64 4.87,-1.59 7.1,-2.85 2.22,-1.27 4.21,-2.78 5.97,-4.52 1.76,-1.75 3.28,-3.74 4.56,-5.96 1.28,-2.22 2.25,-4.58 2.89,-7.06 0.64,-2.49 0.96,-5.12 0.96,-7.91 0,-2.79 -0.32,-5.43 -0.96,-7.91 -0.64,-2.49 -1.61,-4.85 -2.89,-7.07 -1.28,-2.22 -2.81,-4.21 -4.56,-5.96 -1.76,-1.74 -3.75,-3.25 -5.97,-4.51 -2.22,-1.27 -4.6,-2.22 -7.1,-2.85 -2.51,-0.64 -5.18,-0.96 -8,-0.96 -2.83,0 -5.51,0.32 -8.03,0.96 -2.54,0.63 -4.94,1.59 -7.2,2.85 -2.26,1.27 -4.28,2.78 -6.05,4.52 -1.77,1.74 -3.3,3.73 -4.59,5.96 -1.28,2.22 -2.24,4.57 -2.88,7.06 -0.64,2.48 -0.97,5.12 -0.97,7.91 0,2.79 0.33,5.42 0.97,7.91 0.64,2.48 1.6,4.84 2.88,7.06 2.57,4.44 6.12,7.94 10.65,10.47 2.26,1.27 4.66,2.22 7.19,2.86 2.52,0.63 5.2,0.95 8.03,0.95zm222.21 -68.86l-35.79 81.6 -13.62 0c-12.28,-28.01 -24.62,-56 -36.95,-83.99l16.16 0 27.9 63.66 28.12 -63.66 15.23 0 -1.05 2.39zm-647.87 -538.47l-205.69 0 52.12 62.12 153.57 0c13.18,0 25.8,2.66 37.34,7.47 12,5 22.8,12.3 31.85,21.34 9.04,9.05 16.34,19.85 21.34,31.85 4.81,11.54 7.47,24.16 7.47,37.34 0,13.18 -2.66,25.8 -7.47,37.35 -5,11.99 -12.3,22.8 -21.34,31.84l-0.03 0c-5.86,5.87 -12.46,11 -19.61,15.23 -4.37,2.58 -8.95,4.84 -13.71,6.73l41.23 49.13c5.89,-3.25 11.55,-6.86 16.95,-10.8 6.68,-4.87 13.07,-10.35 19.09,-16.37 14.79,-14.8 26.73,-32.45 34.86,-52.02 7.82,-18.82 12.15,-39.46 12.15,-61.09 0,-21.62 -4.33,-42.26 -12.15,-61.08 -8.13,-19.57 -20.07,-37.23 -34.86,-52.03 -14.8,-14.79 -32.46,-26.73 -52.03,-34.86 -18.82,-7.82 -39.46,-12.15 -61.08,-12.15z"/>
 </g>
</svg>
